HIERARCHY
ROOT Hips
{
	OFFSET -0.001795 -0.223333 0.028219
	CHANNELS 6 Xposition Yposition Zposition Zrotation Yrotation Xrotation 
	JOINT LeftUpLeg
	{
		OFFSET 0.069520 -0.091406 -0.006815
		CHANNELS 3 Zrotation Yrotation Xrotation
		JOINT LeftLeg
		{
			OFFSET 0.034277 -0.375199 -0.004496
			CHANNELS 3 Zrotation Yrotation Xrotation
			JOINT LeftFoot
			{
				OFFSET -0.013596 -0.397961 -0.043693
				CHANNELS 3 Zrotation Yrotation Xrotation
				JOINT LeftToe
				{
					OFFSET 0.026358 -0.055791 0.119288
					CHANNELS 3 Zrotation Yrotation Xrotation
					End Site
					{
						OFFSET 0.000000 0.000000 0.000000
					}
				}
			}
		}
	}
	JOINT RightUpLeg
	{
		OFFSET -0.067670 -0.090522 -0.004320
		CHANNELS 3 Zrotation Yrotation Xrotation
		JOINT RightLeg
		{
			OFFSET -0.038290 -0.382569 -0.008850
			CHANNELS 3 Zrotation Yrotation Xrotation
			JOINT RightFoot
			{
				OFFSET 0.015774 -0.398415 -0.042312
				CHANNELS 3 Zrotation Yrotation Xrotation
				JOINT RightToe
				{
					OFFSET -0.025372 -0.048144 0.123348
					CHANNELS 3 Zrotation Yrotation Xrotation
					End Site
					{
						OFFSET 0.000000 0.000000 0.000000
					}
				}
			}
		}
	}
	JOINT Spine
	{
		OFFSET -0.002533 0.108963 -0.026696
		CHANNELS 3 Zrotation Yrotation Xrotation
		JOINT Spine1
		{
			OFFSET 0.005487 0.135180 0.001092
			CHANNELS 3 Zrotation Yrotation Xrotation
			JOINT Spine2
			{
				OFFSET 0.001457 0.052922 0.025425
				CHANNELS 3 Zrotation Yrotation Xrotation
				JOINT Neck
				{
					OFFSET -0.002778 0.213870 -0.042857
					CHANNELS 3 Zrotation Yrotation Xrotation
					JOINT Head
					{
						OFFSET 0.005152 0.064970 0.051349
						CHANNELS 3 Zrotation Yrotation Xrotation
						End Site
						{
							OFFSET 0.000000 0.000000 0.000000
						}
					}
				}
				JOINT LeftShoulder
				{
					OFFSET 0.078845 0.121749 -0.034090
					CHANNELS 3 Zrotation Yrotation Xrotation
					JOINT LeftArm
					{
						OFFSET 0.090977 0.030469 -0.008868
						CHANNELS 3 Zrotation Yrotation Xrotation
						JOINT LeftForeArm
						{
							OFFSET 0.259612 -0.012772 -0.027456
							CHANNELS 3 Zrotation Yrotation Xrotation
							JOINT LeftHand
							{
								OFFSET 0.249234 0.008986 -0.001171
								CHANNELS 3 Zrotation Yrotation Xrotation
								End Site
								{
									OFFSET 0.000000 0.000000 0.000000
								}
							}
						}
					}
				}
				JOINT RightShoulder
				{
					OFFSET -0.081759 0.118833 -0.038615
					CHANNELS 3 Zrotation Yrotation Xrotation
					JOINT RightArm
					{
						OFFSET -0.096012 0.032551 -0.009143
						CHANNELS 3 Zrotation Yrotation Xrotation
						JOINT RightForeArm
						{
							OFFSET -0.253742 -0.013329 -0.021401
							CHANNELS 3 Zrotation Yrotation Xrotation
							JOINT RightHand
							{
								OFFSET -0.255298 0.007772 -0.005559
								CHANNELS 3 Zrotation Yrotation Xrotation
								End Site
								{
									OFFSET 0.000000 0.000000 0.000000
								}
							}
						}
					}
				}
			}
		}
	}
}
MOTION
Frames: 12
Frame Time: 0.050000
0.000000 0.949271 0.000000 -1.359475 -6.398275 1.983328 2.521381 0.242236 3.365757 -1.467553 0.286384 -4.959435 2.312737 7.326102 10.047080 0.000000 0.000000 0.000000 -1.700305 0.023355 0.555180 1.037556 -0.212691 -4.043170 0.641511 -4.781403 12.356408 0.000000 0.000000 0.000000 6.237688 -0.270625 2.026561 -5.159010 1.755609 -23.600602 -0.894399 8.089180 28.583678 10.019579 -4.228441 -22.418901 0.000000 0.000000 0.000000 -8.332516 -1.882317 0.024025 -51.920270 -0.559472 -8.317878 -9.522118 -32.875642 4.257070 0.000000 0.000000 0.000000 16.209563 -9.383518 -5.018870 56.825053 -0.691356 -8.268930 12.500480 33.274633 5.743458 0.000000 0.000000 0.000000 
-0.000082 0.948589 0.000607 -1.572494 -7.228187 2.400831 2.703789 0.292834 4.039813 -1.567907 0.340231 -6.641264 2.614941 7.836755 10.383951 0.000000 0.000000 0.000000 -1.763429 0.056701 0.225467 1.447906 -0.237535 -4.328504 1.026666 -4.150318 12.309365 0.000000 0.000000 0.000000 6.364359 -0.291417 2.140998 -5.450496 1.803702 -24.173130 -0.727894 8.335447 28.152901 10.478491 -4.558247 -22.329285 0.000000 0.000000 0.000000 -7.743704 -1.427658 -0.096492 -52.841068 -0.733700 -8.350402 -9.014242 -32.752113 4.132049 0.000000 0.000000 0.000000 15.767095 -9.538723 -5.120545 58.122438 -3.114401 -9.473875 13.496454 34.828592 6.349467 0.000000 0.000000 0.000000 
-0.000123 0.948068 0.000951 -1.160330 -6.998049 2.419633 2.660452 0.271506 3.772154 -2.237687 0.377091 -6.312494 2.485098 7.609564 10.248539 0.000000 0.000000 0.000000 -1.902187 0.043920 0.469994 0.926565 -0.224189 -4.803866 0.863158 -4.349440 12.121606 0.000000 0.000000 0.000000 6.366803 -0.259205 1.791099 -5.657894 1.850179 -24.798936 -0.641726 8.251930 28.856096 9.791035 -4.073522 -22.624035 0.000000 0.000000 0.000000 -7.904219 -1.857036 0.080487 -52.637394 -0.192608 -8.603000 -9.671186 -33.239851 4.398558 0.000000 0.000000 0.000000 15.645960 -9.836573 -5.244762 58.461131 -3.331874 -9.677969 13.502865 34.006823 6.199037 0.000000 0.000000 0.000000 
-0.000261 0.947728 0.001249 -1.268362 -7.075599 2.372998 2.900672 0.298733 4.223194 -2.459021 0.404818 -6.930889 2.471636 7.593336 10.302913 0.000000 0.000000 0.000000 -1.907224 0.017152 0.822205 1.147163 -0.245807 -5.296222 0.943777 -4.239648 12.202706 0.000000 0.000000 0.000000 6.283261 -0.253129 1.763897 -5.620161 1.836620 -25.241236 -0.550433 8.331000 29.304664 9.625015 -4.064062 -22.097507 0.000000 0.000000 0.000000 -7.549305 -1.583223 -0.005414 -53.104454 -0.163502 -8.730299 -9.452914 -33.993224 4.460802 0.000000 0.000000 0.000000 15.501650 -10.036502 -5.318096 58.614489 -3.966974 -10.034570 13.936365 33.473092 6.229466 0.000000 0.000000 0.000000 
-0.000451 0.947429 0.001548 -1.213831 -7.030272 2.178547 2.673619 0.310306 4.244578 -2.130564 0.375739 -6.574628 2.507060 7.616138 10.079286 0.000000 0.000000 0.000000 -1.887556 0.000819 1.010581 1.028606 -0.238955 -5.211608 0.888403 -4.264437 12.026034 0.000000 0.000000 0.000000 6.005872 -0.250272 1.844661 -5.111792 1.721468 -25.027925 -0.589712 8.473127 28.860855 9.068479 -3.762008 -21.463237 0.000000 0.000000 0.000000 -7.268342 -1.599109 -0.002525 -53.304302 -0.264832 -8.687845 -9.790704 -34.505747 4.619368 0.000000 0.000000 0.000000 14.773812 -10.140357 -5.260566 59.016687 -4.330197 -10.181073 13.930640 33.101126 6.154228 0.000000 0.000000 0.000000 
-0.000641 0.947386 0.001873 -1.303947 -6.892219 2.211606 2.765525 0.311225 4.324926 -2.072106 0.374753 -6.748963 2.442205 7.515608 10.069768 0.000000 0.000000 0.000000 -1.813779 -0.014639 1.151730 1.110844 -0.248603 -5.438129 0.854936 -4.343806 12.114954 0.000000 0.000000 0.000000 5.808204 -0.242279 1.800242 -4.973240 1.689010 -25.213044 -0.378276 8.250016 29.135748 8.752277 -3.586129 -21.447372 0.000000 0.000000 0.000000 -7.084926 -1.216588 -0.131885 -53.043580 -0.579252 -8.529052 -9.480910 -34.996952 4.611628 0.000000 0.000000 0.000000 14.298046 -10.070676 -5.186635 59.022524 -4.675664 -10.352637 13.668726 32.806111 5.992990 0.000000 0.000000 0.000000 
-0.000868 0.947346 0.002244 -1.308812 -6.929717 2.118514 2.681669 0.315808 4.327434 -1.898086 0.358101 -6.516290 2.489752 7.576432 9.976684 0.000000 0.000000 0.000000 -1.744217 -0.034230 1.354070 1.010610 -0.247605 -5.576979 0.881375 -4.299131 12.115003 0.000000 0.000000 0.000000 5.593220 -0.241925 1.875992 -4.818067 1.654042 -25.013444 -0.386390 8.346220 28.889106 8.924426 -3.663375 -21.527027 0.000000 0.000000 0.000000 -6.981224 -1.101030 -0.183453 -52.797603 -0.748853 -8.397694 -9.071619 -35.961560 4.603900 0.000000 0.000000 0.000000 14.189417 -10.083026 -5.172132 59.041429 -4.987920 -10.465826 13.474658 32.607971 5.889771 0.000000 0.000000 0.000000 
-0.001128 0.947324 0.002714 -1.263974 -6.826632 2.053415 2.663857 0.327539 4.473989 -1.903826 0.360532 -6.624307 2.424054 7.477646 9.997428 0.000000 0.000000 0.000000 -1.704764 -0.052662 1.554991 0.890795 -0.247181 -5.737181 0.838993 -4.365553 12.116683 0.000000 0.000000 0.000000 5.398076 -0.238469 1.904996 -4.687882 1.623735 -25.119377 -0.385548 8.393481 29.115180 9.081825 -3.760339 -21.497442 0.000000 0.000000 0.000000 -7.057394 -0.988286 -0.245677 -52.124175 -0.891694 -8.252975 -8.662656 -37.261171 4.630604 0.000000 0.000000 0.000000 14.330460 -10.213661 -5.234039 58.743066 -5.174541 -10.527980 13.389139 32.580777 5.870621 0.000000 0.000000 0.000000 
-0.001392 0.947245 0.003258 -1.296026 -6.952851 2.066135 2.679787 0.333866 4.547244 -1.874191 0.360428 -6.674365 2.485857 7.572670 9.994010 0.000000 0.000000 0.000000 -1.722246 -0.056772 1.629121 0.989020 -0.253083 -5.846993 0.906726 -4.255586 12.120418 0.000000 0.000000 0.000000 5.301557 -0.226924 1.800774 -4.719934 1.630267 -24.982564 -0.307843 8.424678 29.015814 9.075558 -3.770265 -21.431165 0.000000 0.000000 0.000000 -7.000676 -0.770680 -0.328880 -51.672919 -0.988870 -8.127812 -8.203135 -38.339427 4.617166 0.000000 0.000000 0.000000 14.195093 -10.251251 -5.249329 58.499554 -5.590041 -10.664815 13.539725 32.629825 5.907128 0.000000 0.000000 0.000000 
-0.001699 0.947186 0.003841 -1.263855 -7.217154 2.058597 2.727249 0.344118 4.664730 -2.049951 0.375108 -6.741200 2.586966 7.735193 10.050552 0.000000 0.000000 0.000000 -1.780330 -0.058192 1.710021 1.017514 -0.255605 -5.968385 1.030958 -4.049065 12.100113 0.000000 0.000000 0.000000 5.225724 -0.213207 1.669540 -4.692954 1.620241 -24.945615 -0.309953 8.591294 29.099871 9.081828 -3.774732 -21.431221 0.000000 0.000000 0.000000 -6.970583 -0.597747 -0.397098 -51.134918 -1.039160 -8.025956 -7.606492 -39.381691 4.536529 0.000000 0.000000 0.000000 14.225964 -10.333670 -5.295886 58.143354 -5.802634 -10.716512 13.602659 32.593309 5.911639 0.000000 0.000000 0.000000 
-0.002009 0.947077 0.004435 -1.252557 -7.351448 1.971346 2.776134 0.365406 4.931549 -2.156911 0.387469 -6.939217 2.620090 7.791531 10.095462 0.000000 0.000000 0.000000 -1.843870 -0.064756 1.853013 1.115181 -0.259336 -6.008514 1.091059 -3.930499 12.047877 0.000000 0.000000 0.000000 5.143472 -0.209564 1.669178 -4.675299 1.614904 -24.928738 -0.290012 8.633473 29.121860 9.188889 -3.846792 -21.456755 0.000000 0.000000 0.000000 -6.843227 -0.488464 -0.426756 -50.627056 -1.028325 -7.951113 -7.247300 -40.119648 4.495625 0.000000 0.000000 0.000000 14.169219 -10.479434 -5.371189 57.926556 -6.041704 -10.792685 13.789571 32.548153 5.948968 0.000000 0.000000 0.000000 
-0.002282 0.946997 0.005031 -1.262334 -7.575914 1.928270 2.809006 0.378033 5.072160 -2.221302 0.393882 -6.975382 2.715623 7.940658 10.108956 0.000000 0.000000 0.000000 -1.836260 -0.069673 1.927270 1.108473 -0.258305 -6.028162 1.189784 -3.752573 11.998122 0.000000 0.000000 0.000000 5.182503 -0.201125 1.570769 -4.653789 1.608302 -24.783650 -0.347219 8.677958 29.058368 9.228921 -3.879698 -21.488467 0.000000 0.000000 0.000000 -6.876851 -0.497846 -0.416389 -50.323480 -0.822324 -7.976686 -6.873223 -40.498467 4.411111 0.000000 0.000000 0.000000 14.184648 -10.398107 -5.347530 57.869525 -6.129041 -10.827551 13.578779 32.559608 5.877986 0.000000 0.000000 0.000000 
